<svg xmlns="http://www.w3.org/2000/svg" xmlns:xlink="http://www.w3.org/1999/xlink" viewBox="0 0 1920.229 1112.154">
  <defs>
    <style>
      .cls-1 {
        fill: none;
      }

      .cls-2 {
        fill: #456990;
      }

      .cls-2, .cls-4 {
        stroke: #707070;
      }

      .cls-3 {
        clip-path: url(#clip-path);
      }

      .cls-4 {
        fill: #f45b69;
      }

      .cls-5 {
        clip-path: url(#clip-path-2);
      }

      .cls-6 {
        clip-path: url(#clip-path-3);
      }

      .cls-7 {
        clip-path: url(#clip-path-4);
      }

      .cls-8 {
        stroke: none;
      }
    </style>
    <clipPath id="clip-path">
      <rect class="cls-1" width="413.229" height="589.154"/>
    </clipPath>
    <clipPath id="clip-path-2">
      <rect class="cls-1" width="342.229" height="589.154"/>
    </clipPath>
    <clipPath id="clip-path-3">
      <rect class="cls-1" width="785.229" height="268.154"/>
    </clipPath>
    <clipPath id="clip-path-4">
      <rect class="cls-1" width="785.229" height="294.154"/>
    </clipPath>
  </defs>
  <g id="Group_2" data-name="Group 2" transform="translate(0.078 0.036)">
    <g id="Rectangle_1" data-name="Rectangle 1" class="cls-2">
      <rect class="cls-8" width="1920" height="1080"/>
      <rect class="cls-1" x="0.5" y="0.5" width="1919" height="1079"/>
    </g>
    <g id="Repeat_Grid_3" data-name="Repeat Grid 3" class="cls-3" transform="translate(1506.922 26.964)">
      <g transform="translate(-1506.922 -26.964)">
        <g id="Rectangle_7" data-name="Rectangle 7" class="cls-4" transform="matrix(0.875, -0.485, 0.485, 0.875, 1506.922, 393.965)">
          <rect class="cls-8" width="757" height="254" rx="127"/>
          <rect class="cls-1" x="0.5" y="0.5" width="756" height="253" rx="126.5"/>
        </g>
      </g>
    </g>
    <g id="Repeat_Grid_1" data-name="Repeat Grid 1" class="cls-5" transform="translate(342.151 1112.119) rotate(180)">
      <g transform="translate(342.078 -490.964)">
        <g id="Rectangle_8" data-name="Rectangle 8" class="cls-4" transform="matrix(0.875, -0.485, 0.485, 0.875, -342.078, 857.965)">
          <rect class="cls-8" width="757" height="254" rx="127"/>
          <rect class="cls-1" x="0.5" y="0.5" width="756" height="253" rx="126.5"/>
        </g>
      </g>
    </g>
    <g id="Repeat_Grid_2" data-name="Repeat Grid 2" class="cls-6" transform="translate(911.151 268.119) rotate(180)">
      <g transform="translate(-125.922 268.036)">
        <g id="Rectangle_9" data-name="Rectangle 9" class="cls-4" transform="matrix(0.875, -0.485, 0.485, 0.875, 125.922, 98.965)">
          <rect class="cls-8" width="757" height="254" rx="127"/>
          <rect class="cls-1" x="0.5" y="0.5" width="756" height="253" rx="126.5"/>
        </g>
      </g>
    </g>
    <g id="Repeat_Grid_4" data-name="Repeat Grid 4" class="cls-7" transform="translate(910.922 785.964)">
      <g transform="translate(-910.922 -785.964)">
        <g id="Rectangle_10" data-name="Rectangle 10" class="cls-4" transform="matrix(0.875, -0.485, 0.485, 0.875, 910.922, 1152.965)">
          <rect class="cls-8" width="757" height="254" rx="127"/>
          <rect class="cls-1" x="0.5" y="0.5" width="756" height="253" rx="126.5"/>
        </g>
      </g>
    </g>
  </g>
</svg>
